<svg width="32" height="32" viewBox="0 0 32 32" fill="none" xmlns="http://www.w3.org/2000/svg">
<rect width="32" height="32" fill="#B3B3B3"/>
<g clip-path="url(#clip0_0_1)">
<rect width="1440" height="4433" transform="translate(-705 -2561)" fill="white"/>
<rect width="1440" height="4433" transform="translate(-705 -2561)" fill="#19191B"/>
<path fill-rule="evenodd" clip-rule="evenodd" d="M15.5 51C34.5538 51 50 35.5538 50 16.5C50 -2.55382 34.5538 -18 15.5 -18C-3.55382 -18 -19 -2.55382 -19 16.5C-19 35.5538 -3.55382 51 15.5 51Z" fill="#5454D4" fill-opacity="0.1"/>
<path d="M9.01323 29.3333H22.9866C26.6666 29.3333 28.1332 27.08 28.3066 24.3333L28.9999 13.32C29.1866 10.44 26.8932 7.99999 23.9999 7.99999C23.1866 7.99999 22.4399 7.53332 22.0666 6.81332L21.1066 4.87999C20.4932 3.66666 18.8932 2.66666 17.5332 2.66666H14.4799C13.1066 2.66666 11.5066 3.66666 10.8932 4.87999L9.93323 6.81332C9.5599 7.53332 8.81323 7.99999 7.9999 7.99999C5.10656 7.99999 2.81323 10.44 2.9999 13.32L3.69323 24.3333C3.85323 27.08 5.33323 29.3333 9.01323 29.3333Z" stroke="#5454D4" stroke-width="2" stroke-linecap="round" stroke-linejoin="round"/>
<path d="M14 10.6667H18" stroke="#5454D4" stroke-width="2" stroke-linecap="round" stroke-linejoin="round"/>
<path d="M16.0001 24C18.3867 24 20.3334 22.0533 20.3334 19.6667C20.3334 17.28 18.3867 15.3333 16.0001 15.3333C13.6134 15.3333 11.6667 17.28 11.6667 19.6667C11.6667 22.0533 13.6134 24 16.0001 24Z" stroke="#5454D4" stroke-width="2" stroke-linecap="round" stroke-linejoin="round"/>
</g>
<defs>
<clipPath id="clip0_0_1">
<rect width="1440" height="4433" fill="white" transform="translate(-705 -2561)"/>
</clipPath>
</defs>
</svg>
